<mxfile modified="2019-11-27T06:10:22.687Z" host="www.draw.io" agent="Mozilla/5.0 (Windows NT 10.0; Win64; x64) AppleWebKit/537.36 (KHTML, like Gecko) Chrome/78.0.3904.108 Safari/537.36" etag="vzpJ-G5QBFCBrhNQrXDY" version="12.3.1" type="github" pages="1">
  <diagram id="Ht1M8jgEwFfnCIfOTk4-" name="Page-1">
    <mxGraphModel dx="2031" dy="1089" grid="1" gridSize="10" guides="1" tooltips="1" connect="1" arrows="1" fold="1" page="1" pageScale="1" pageWidth="1169" pageHeight="827" math="0" shadow="0">
      <root>
        <mxCell id="0"/>
        <mxCell id="1" parent="0"/>
        <mxCell id="IrCEQAtB_wHfeVbh73Qq-1" value="AWS Cloud" style="points=[[0,0],[0.25,0],[0.5,0],[0.75,0],[1,0],[1,0.25],[1,0.5],[1,0.75],[1,1],[0.75,1],[0.5,1],[0.25,1],[0,1],[0,0.75],[0,0.5],[0,0.25]];outlineConnect=0;gradientColor=none;html=1;whiteSpace=wrap;fontSize=12;fontStyle=0;shape=mxgraph.aws4.group;grIcon=mxgraph.aws4.group_aws_cloud_alt;strokeColor=#232F3E;fillColor=none;verticalAlign=top;align=left;spacingLeft=30;fontColor=#232F3E;dashed=0;" parent="1" vertex="1">
          <mxGeometry x="20" y="20" width="950" height="1600" as="geometry"/>
        </mxCell>
        <mxCell id="IrCEQAtB_wHfeVbh73Qq-2" value="Region (us-east-2)" style="points=[[0,0],[0.25,0],[0.5,0],[0.75,0],[1,0],[1,0.25],[1,0.5],[1,0.75],[1,1],[0.75,1],[0.5,1],[0.25,1],[0,1],[0,0.75],[0,0.5],[0,0.25]];outlineConnect=0;gradientColor=none;html=1;whiteSpace=wrap;fontSize=12;fontStyle=0;shape=mxgraph.aws4.group;grIcon=mxgraph.aws4.group_region;strokeColor=#147EBA;fillColor=none;verticalAlign=top;align=left;spacingLeft=30;fontColor=#147EBA;dashed=0;" parent="1" vertex="1">
          <mxGeometry x="50" y="60" width="890" height="1530" as="geometry"/>
        </mxCell>
        <mxCell id="IrCEQAtB_wHfeVbh73Qq-3" value="VPC (HZ-BOT-VPC) 10.0.0.0/16" style="points=[[0,0],[0.25,0],[0.5,0],[0.75,0],[1,0],[1,0.25],[1,0.5],[1,0.75],[1,1],[0.75,1],[0.5,1],[0.25,1],[0,1],[0,0.75],[0,0.5],[0,0.25]];outlineConnect=0;gradientColor=none;html=1;whiteSpace=wrap;fontSize=12;fontStyle=0;shape=mxgraph.aws4.group;grIcon=mxgraph.aws4.group_vpc;strokeColor=#248814;fillColor=none;verticalAlign=top;align=left;spacingLeft=30;fontColor=#AAB7B8;dashed=0;" parent="1" vertex="1">
          <mxGeometry x="80" y="90" width="830" height="1470" as="geometry"/>
        </mxCell>
        <mxCell id="IrCEQAtB_wHfeVbh73Qq-14" style="edgeStyle=orthogonalEdgeStyle;rounded=0;orthogonalLoop=1;jettySize=auto;html=1;exitX=0.5;exitY=1;exitDx=0;exitDy=0;exitPerimeter=0;entryX=0.5;entryY=0;entryDx=0;entryDy=0;entryPerimeter=0;" parent="1" source="IrCEQAtB_wHfeVbh73Qq-7" target="IrCEQAtB_wHfeVbh73Qq-9" edge="1">
          <mxGeometry relative="1" as="geometry"/>
        </mxCell>
        <mxCell id="IrCEQAtB_wHfeVbh73Qq-7" value="Internet Gateway&lt;br&gt;&lt;span style=&quot;color: rgb(68 , 68 , 68) ; font-family: &amp;#34;helvetica neue&amp;#34; , &amp;#34;roboto&amp;#34; , &amp;#34;arial&amp;#34; , sans-serif ; font-size: 13px ; white-space: normal ; background-color: rgb(255 , 255 , 255)&quot;&gt;igw-0143db652e8642289&lt;/span&gt;" style="outlineConnect=0;dashed=0;verticalLabelPosition=bottom;verticalAlign=top;align=center;html=1;shape=mxgraph.aws3.internet_gateway;fillColor=#F58534;gradientColor=none;" parent="1" vertex="1">
          <mxGeometry x="330" y="40" width="69" height="72" as="geometry"/>
        </mxCell>
        <mxCell id="IrCEQAtB_wHfeVbh73Qq-16" style="edgeStyle=orthogonalEdgeStyle;rounded=0;orthogonalLoop=1;jettySize=auto;html=1;exitX=0.5;exitY=1;exitDx=0;exitDy=0;exitPerimeter=0;entryX=0.5;entryY=0;entryDx=0;entryDy=0;entryPerimeter=0;" parent="1" source="IrCEQAtB_wHfeVbh73Qq-9" target="IrCEQAtB_wHfeVbh73Qq-10" edge="1">
          <mxGeometry relative="1" as="geometry"/>
        </mxCell>
        <mxCell id="IrCEQAtB_wHfeVbh73Qq-21" style="edgeStyle=orthogonalEdgeStyle;rounded=0;orthogonalLoop=1;jettySize=auto;html=1;exitX=0.5;exitY=1;exitDx=0;exitDy=0;exitPerimeter=0;entryX=0.5;entryY=0;entryDx=0;entryDy=0;entryPerimeter=0;" parent="1" source="IrCEQAtB_wHfeVbh73Qq-9" target="IrCEQAtB_wHfeVbh73Qq-19" edge="1">
          <mxGeometry relative="1" as="geometry"/>
        </mxCell>
        <mxCell id="IrCEQAtB_wHfeVbh73Qq-9" value="router" style="outlineConnect=0;dashed=0;verticalLabelPosition=bottom;verticalAlign=top;align=center;html=1;shape=mxgraph.aws3.router;fillColor=#F58534;gradientColor=none;" parent="1" vertex="1">
          <mxGeometry x="421" y="230" width="69" height="72" as="geometry"/>
        </mxCell>
        <mxCell id="AlVLZcOCev9u_Qrexixf-11" style="edgeStyle=orthogonalEdgeStyle;rounded=0;orthogonalLoop=1;jettySize=auto;html=1;exitX=1;exitY=0.5;exitDx=0;exitDy=0;exitPerimeter=0;" edge="1" parent="1" source="IrCEQAtB_wHfeVbh73Qq-10" target="IrCEQAtB_wHfeVbh73Qq-11">
          <mxGeometry relative="1" as="geometry"/>
        </mxCell>
        <mxCell id="IrCEQAtB_wHfeVbh73Qq-10" value="Public-Route-Table&lt;br&gt;&lt;span style=&quot;color: rgb(68 , 68 , 68) ; font-family: &amp;#34;helvetica neue&amp;#34; , &amp;#34;roboto&amp;#34; , &amp;#34;arial&amp;#34; , sans-serif ; font-size: 13px ; white-space: normal ; background-color: rgb(255 , 255 , 255)&quot;&gt;rtb-08514ac2d2b86931f&lt;/span&gt;" style="outlineConnect=0;dashed=0;verticalLabelPosition=bottom;verticalAlign=top;align=center;html=1;shape=mxgraph.aws3.route_table;fillColor=#F58536;gradientColor=none;" parent="1" vertex="1">
          <mxGeometry x="150" y="344" width="75" height="69" as="geometry"/>
        </mxCell>
        <mxCell id="AlVLZcOCev9u_Qrexixf-4" value="" style="edgeStyle=orthogonalEdgeStyle;rounded=0;orthogonalLoop=1;jettySize=auto;html=1;entryX=0.5;entryY=0;entryDx=0;entryDy=0;" edge="1" parent="1" source="IrCEQAtB_wHfeVbh73Qq-11" target="IrCEQAtB_wHfeVbh73Qq-23">
          <mxGeometry relative="1" as="geometry">
            <mxPoint x="267.5" y="515" as="targetPoint"/>
          </mxGeometry>
        </mxCell>
        <mxCell id="AlVLZcOCev9u_Qrexixf-9" value="" style="edgeStyle=orthogonalEdgeStyle;rounded=0;orthogonalLoop=1;jettySize=auto;html=1;entryX=0.5;entryY=0;entryDx=0;entryDy=0;" edge="1" parent="1" source="IrCEQAtB_wHfeVbh73Qq-11" target="IrCEQAtB_wHfeVbh73Qq-24">
          <mxGeometry relative="1" as="geometry">
            <mxPoint x="955" y="542.5" as="targetPoint"/>
          </mxGeometry>
        </mxCell>
        <mxCell id="IrCEQAtB_wHfeVbh73Qq-11" value="Network access&lt;br&gt;control list &lt;br&gt;&lt;span style=&quot;color: rgb(68 , 68 , 68) ; font-family: &amp;#34;helvetica neue&amp;#34; , &amp;#34;roboto&amp;#34; , &amp;#34;arial&amp;#34; , sans-serif ; font-size: 13px ; white-space: normal ; background-color: rgb(255 , 255 , 255)&quot;&gt;acl-043d29eb8f47fdb51&lt;/span&gt;" style="outlineConnect=0;fontColor=#232F3E;gradientColor=none;strokeColor=#232F3E;fillColor=#ffffff;dashed=0;verticalLabelPosition=bottom;verticalAlign=top;align=center;html=1;fontSize=12;fontStyle=0;aspect=fixed;shape=mxgraph.aws4.resourceIcon;resIcon=mxgraph.aws4.network_access_control_list;" parent="1" vertex="1">
          <mxGeometry x="413" y="500" width="85" height="85" as="geometry"/>
        </mxCell>
        <mxCell id="SeOlZOP9-2nnlMnaRjgP-2" value="" style="edgeStyle=orthogonalEdgeStyle;rounded=0;orthogonalLoop=1;jettySize=auto;html=1;" parent="1" source="IrCEQAtB_wHfeVbh73Qq-19" target="IrCEQAtB_wHfeVbh73Qq-11" edge="1">
          <mxGeometry relative="1" as="geometry">
            <mxPoint x="1140" y="480" as="targetPoint"/>
          </mxGeometry>
        </mxCell>
        <mxCell id="IrCEQAtB_wHfeVbh73Qq-23" value="Availability Zone (us-east-2a)" style="fillColor=none;strokeColor=#147EBA;dashed=1;verticalAlign=top;fontStyle=0;fontColor=#147EBA;" parent="1" vertex="1">
          <mxGeometry x="109" y="668" width="301" height="822" as="geometry"/>
        </mxCell>
        <mxCell id="IrCEQAtB_wHfeVbh73Qq-24" value="Availability Zone (us-east-2b)" style="fillColor=none;strokeColor=#147EBA;dashed=1;verticalAlign=top;fontStyle=0;fontColor=#147EBA;" parent="1" vertex="1">
          <mxGeometry x="500" y="668" width="310" height="242" as="geometry"/>
        </mxCell>
        <mxCell id="IrCEQAtB_wHfeVbh73Qq-4" value="HZ-BOT-VPC-Public-Subnet-1 (10.0.1.0/24)&lt;br&gt;subnet-0e83e351b0af473e8" style="points=[[0,0],[0.25,0],[0.5,0],[0.75,0],[1,0],[1,0.25],[1,0.5],[1,0.75],[1,1],[0.75,1],[0.5,1],[0.25,1],[0,1],[0,0.75],[0,0.5],[0,0.25]];outlineConnect=0;gradientColor=none;html=1;whiteSpace=wrap;fontSize=12;fontStyle=0;shape=mxgraph.aws4.group;grIcon=mxgraph.aws4.group_security_group;grStroke=0;strokeColor=#248814;fillColor=#E9F3E6;verticalAlign=top;align=left;spacingLeft=30;fontColor=#248814;dashed=0;" parent="1" vertex="1">
          <mxGeometry x="124" y="694" width="276" height="776" as="geometry"/>
        </mxCell>
        <mxCell id="IrCEQAtB_wHfeVbh73Qq-5" value="&lt;span style=&quot;color: rgb(36 , 136 , 20)&quot;&gt;HZ-BOT-VPC-Private-Subnet&amp;nbsp;&lt;/span&gt;&lt;font color=&quot;#248814&quot;&gt;(10.0.2.0/24)&lt;/font&gt;&lt;br&gt;&lt;font color=&quot;#248814&quot;&gt;subnet-0829a074464cca5f6&lt;/font&gt;" style="points=[[0,0],[0.25,0],[0.5,0],[0.75,0],[1,0],[1,0.25],[1,0.5],[1,0.75],[1,1],[0.75,1],[0.5,1],[0.25,1],[0,1],[0,0.75],[0,0.5],[0,0.25]];outlineConnect=0;gradientColor=none;html=1;whiteSpace=wrap;fontSize=12;fontStyle=0;shape=mxgraph.aws4.group;grIcon=mxgraph.aws4.group_security_group;grStroke=0;strokeColor=#147EBA;fillColor=#E6F2F8;verticalAlign=top;align=left;spacingLeft=30;fontColor=#147EBA;dashed=0;" parent="1" vertex="1">
          <mxGeometry x="520" y="694" width="280" height="206" as="geometry"/>
        </mxCell>
        <mxCell id="AlVLZcOCev9u_Qrexixf-15" style="edgeStyle=orthogonalEdgeStyle;rounded=0;orthogonalLoop=1;jettySize=auto;html=1;exitX=1;exitY=0.5;exitDx=0;exitDy=0;entryX=0;entryY=0.5;entryDx=0;entryDy=0;" edge="1" parent="1" source="IrCEQAtB_wHfeVbh73Qq-13" target="SeOlZOP9-2nnlMnaRjgP-4">
          <mxGeometry relative="1" as="geometry"/>
        </mxCell>
        <mxCell id="IrCEQAtB_wHfeVbh73Qq-13" value="Security group&#xa;WebDMZ&#xa; sg-0694bb8a472542b6d" style="fillColor=none;strokeColor=#DD3522;verticalAlign=top;fontStyle=0;fontColor=#DD3522;" parent="1" vertex="1">
          <mxGeometry x="150" y="740" width="206" height="154" as="geometry"/>
        </mxCell>
        <mxCell id="SeOlZOP9-2nnlMnaRjgP-3" value="EC2 instance WebDMZ &lt;br&gt;(Amazon Linux 2)" style="points=[[0,0],[0.25,0],[0.5,0],[0.75,0],[1,0],[1,0.25],[1,0.5],[1,0.75],[1,1],[0.75,1],[0.5,1],[0.25,1],[0,1],[0,0.75],[0,0.5],[0,0.25]];outlineConnect=0;gradientColor=none;html=1;whiteSpace=wrap;fontSize=12;fontStyle=0;shape=mxgraph.aws4.group;grIcon=mxgraph.aws4.group_ec2_instance_contents;strokeColor=#D86613;fillColor=none;verticalAlign=top;align=left;spacingLeft=30;fontColor=#D86613;dashed=0;" parent="1" vertex="1">
          <mxGeometry x="166" y="800" width="174" height="76" as="geometry"/>
        </mxCell>
        <mxCell id="SeOlZOP9-2nnlMnaRjgP-4" value="Security group&#xa;BotSG&#xa; sg-0d216ad251e88c1c5" style="fillColor=none;strokeColor=#DD3522;verticalAlign=top;fontStyle=0;fontColor=#DD3522;" parent="1" vertex="1">
          <mxGeometry x="530" y="740" width="250" height="154" as="geometry"/>
        </mxCell>
        <mxCell id="AlVLZcOCev9u_Qrexixf-2" style="edgeStyle=orthogonalEdgeStyle;rounded=0;orthogonalLoop=1;jettySize=auto;html=1;exitX=0.5;exitY=1;exitDx=0;exitDy=0;exitPerimeter=0;entryX=0.5;entryY=0;entryDx=0;entryDy=0;entryPerimeter=0;" edge="1" parent="1" source="AlVLZcOCev9u_Qrexixf-1" target="IrCEQAtB_wHfeVbh73Qq-9">
          <mxGeometry relative="1" as="geometry"/>
        </mxCell>
        <mxCell id="AlVLZcOCev9u_Qrexixf-1" value="Nat Gateway&lt;br&gt;&lt;span style=&quot;color: rgb(68 , 68 , 68) ; font-family: &amp;#34;helvetica neue&amp;#34; , &amp;#34;roboto&amp;#34; , &amp;#34;arial&amp;#34; , sans-serif ; font-size: 13px ; white-space: normal ; background-color: rgb(255 , 255 , 255)&quot;&gt;nat-00f584cb261e6f182&lt;/span&gt;" style="outlineConnect=0;dashed=0;verticalLabelPosition=bottom;verticalAlign=top;align=center;html=1;shape=mxgraph.aws3.vpc_nat_gateway;fillColor=#F58534;gradientColor=none;" vertex="1" parent="1">
          <mxGeometry x="520" y="40" width="69" height="72" as="geometry"/>
        </mxCell>
        <mxCell id="IrCEQAtB_wHfeVbh73Qq-6" value="EC2 instance&amp;nbsp;BOT-Server-1&lt;br&gt;(Amazon Linux 2)" style="points=[[0,0],[0.25,0],[0.5,0],[0.75,0],[1,0],[1,0.25],[1,0.5],[1,0.75],[1,1],[0.75,1],[0.5,1],[0.25,1],[0,1],[0,0.75],[0,0.5],[0,0.25]];outlineConnect=0;gradientColor=none;html=1;whiteSpace=wrap;fontSize=12;fontStyle=0;shape=mxgraph.aws4.group;grIcon=mxgraph.aws4.group_ec2_instance_contents;strokeColor=#D86613;fillColor=none;verticalAlign=top;align=left;spacingLeft=30;fontColor=#D86613;dashed=0;" parent="1" vertex="1">
          <mxGeometry x="550" y="797" width="200" height="76" as="geometry"/>
        </mxCell>
        <mxCell id="IrCEQAtB_wHfeVbh73Qq-19" value="Private Route Table&lt;br&gt;&lt;span style=&quot;color: rgb(68 , 68 , 68) ; font-family: &amp;#34;helvetica neue&amp;#34; , &amp;#34;roboto&amp;#34; , &amp;#34;arial&amp;#34; , sans-serif ; font-size: 13px ; white-space: normal ; background-color: rgb(255 , 255 , 255)&quot;&gt;rtb-0d21da87f9dc627fa&lt;/span&gt;" style="outlineConnect=0;dashed=0;verticalLabelPosition=bottom;verticalAlign=top;align=center;html=1;shape=mxgraph.aws3.route_table;fillColor=#F58536;gradientColor=none;" parent="1" vertex="1">
          <mxGeometry x="762.5" y="344" width="75" height="69" as="geometry"/>
        </mxCell>
        <mxCell id="AlVLZcOCev9u_Qrexixf-16" value="Availability Zone (us-east-2c)" style="fillColor=none;strokeColor=#147EBA;dashed=1;verticalAlign=top;fontStyle=0;fontColor=#147EBA;" vertex="1" parent="1">
          <mxGeometry x="570" y="1010" width="320" height="390" as="geometry"/>
        </mxCell>
        <mxCell id="AlVLZcOCev9u_Qrexixf-17" value="HZ-BOT-VPC-Public-Subnet-2 (10.0.3.0/24)&lt;br&gt;subnet-0a30242fcfe7fc7f1" style="points=[[0,0],[0.25,0],[0.5,0],[0.75,0],[1,0],[1,0.25],[1,0.5],[1,0.75],[1,1],[0.75,1],[0.5,1],[0.25,1],[0,1],[0,0.75],[0,0.5],[0,0.25]];outlineConnect=0;gradientColor=none;html=1;whiteSpace=wrap;fontSize=12;fontStyle=0;shape=mxgraph.aws4.group;grIcon=mxgraph.aws4.group_security_group;grStroke=0;strokeColor=#248814;fillColor=#E9F3E6;verticalAlign=top;align=left;spacingLeft=30;fontColor=#248814;dashed=0;" vertex="1" parent="1">
          <mxGeometry x="590" y="1040" width="280" height="350" as="geometry"/>
        </mxCell>
        <mxCell id="AlVLZcOCev9u_Qrexixf-20" value="Security group&#xa;JenkinsSecurityGroup&#xa; sg-0611ad1efb814e4b3" style="fillColor=none;strokeColor=#DD3522;verticalAlign=top;fontStyle=0;fontColor=#DD3522;" vertex="1" parent="1">
          <mxGeometry x="150" y="910" width="206" height="154" as="geometry"/>
        </mxCell>
        <mxCell id="AlVLZcOCev9u_Qrexixf-21" value="EC2 instance Jenkins Server &lt;br&gt;(Amazon Linux 2)" style="points=[[0,0],[0.25,0],[0.5,0],[0.75,0],[1,0],[1,0.25],[1,0.5],[1,0.75],[1,1],[0.75,1],[0.5,1],[0.25,1],[0,1],[0,0.75],[0,0.5],[0,0.25]];outlineConnect=0;gradientColor=none;html=1;whiteSpace=wrap;fontSize=12;fontStyle=0;shape=mxgraph.aws4.group;grIcon=mxgraph.aws4.group_ec2_instance_contents;strokeColor=#D86613;fillColor=none;verticalAlign=top;align=left;spacingLeft=30;fontColor=#D86613;dashed=0;" vertex="1" parent="1">
          <mxGeometry x="166" y="972" width="174" height="76" as="geometry"/>
        </mxCell>
        <mxCell id="AlVLZcOCev9u_Qrexixf-22" value="Security group&#xa;WSSG&#xa; sg-0f7dff5e59d1bd437" style="fillColor=none;strokeColor=#DD3522;verticalAlign=top;fontStyle=0;fontColor=#DD3522;" vertex="1" parent="1">
          <mxGeometry x="150" y="1085" width="680" height="290" as="geometry"/>
        </mxCell>
        <mxCell id="AlVLZcOCev9u_Qrexixf-24" value="Auto Scaling group&lt;br&gt;WSASG-14WTUOONK22YC" style="points=[[0,0],[0.25,0],[0.5,0],[0.75,0],[1,0],[1,0.25],[1,0.5],[1,0.75],[1,1],[0.75,1],[0.5,1],[0.25,1],[0,1],[0,0.75],[0,0.5],[0,0.25]];outlineConnect=0;gradientColor=none;html=1;whiteSpace=wrap;fontSize=12;fontStyle=0;shape=mxgraph.aws4.groupCenter;grIcon=mxgraph.aws4.group_auto_scaling_group;grStroke=1;strokeColor=#D86613;fillColor=none;verticalAlign=top;align=center;fontColor=#D86613;dashed=1;spacingTop=25;" vertex="1" parent="1">
          <mxGeometry x="170" y="1140" width="640" height="220" as="geometry"/>
        </mxCell>
        <mxCell id="AlVLZcOCev9u_Qrexixf-23" value="EC2 instance CodeDeployDemo&lt;br&gt;(Amazon Linux 2)" style="points=[[0,0],[0.25,0],[0.5,0],[0.75,0],[1,0],[1,0.25],[1,0.5],[1,0.75],[1,1],[0.75,1],[0.5,1],[0.25,1],[0,1],[0,0.75],[0,0.5],[0,0.25]];outlineConnect=0;gradientColor=none;html=1;whiteSpace=wrap;fontSize=12;fontStyle=0;shape=mxgraph.aws4.group;grIcon=mxgraph.aws4.group_ec2_instance_contents;strokeColor=#D86613;fillColor=none;verticalAlign=top;align=left;spacingLeft=30;fontColor=#D86613;dashed=0;" vertex="1" parent="1">
          <mxGeometry x="200" y="1270" width="174" height="76" as="geometry"/>
        </mxCell>
        <mxCell id="AlVLZcOCev9u_Qrexixf-26" value="EC2 instance CodeDeployDemo&lt;br&gt;(Amazon Linux 2)" style="points=[[0,0],[0.25,0],[0.5,0],[0.75,0],[1,0],[1,0.25],[1,0.5],[1,0.75],[1,1],[0.75,1],[0.5,1],[0.25,1],[0,1],[0,0.75],[0,0.5],[0,0.25]];outlineConnect=0;gradientColor=none;html=1;whiteSpace=wrap;fontSize=12;fontStyle=0;shape=mxgraph.aws4.group;grIcon=mxgraph.aws4.group_ec2_instance_contents;strokeColor=#D86613;fillColor=none;verticalAlign=top;align=left;spacingLeft=30;fontColor=#D86613;dashed=0;" vertex="1" parent="1">
          <mxGeometry x="600" y="1164" width="174" height="76" as="geometry"/>
        </mxCell>
        <mxCell id="AlVLZcOCev9u_Qrexixf-27" value="EC2 instance CodeDeployDemo&lt;br&gt;(Amazon Linux 2)" style="points=[[0,0],[0.25,0],[0.5,0],[0.75,0],[1,0],[1,0.25],[1,0.5],[1,0.75],[1,1],[0.75,1],[0.5,1],[0.25,1],[0,1],[0,0.75],[0,0.5],[0,0.25]];outlineConnect=0;gradientColor=none;html=1;whiteSpace=wrap;fontSize=12;fontStyle=0;shape=mxgraph.aws4.group;grIcon=mxgraph.aws4.group_ec2_instance_contents;strokeColor=#D86613;fillColor=none;verticalAlign=top;align=left;spacingLeft=30;fontColor=#D86613;dashed=0;" vertex="1" parent="1">
          <mxGeometry x="200" y="1167" width="174" height="76" as="geometry"/>
        </mxCell>
      </root>
    </mxGraphModel>
  </diagram>
</mxfile>
